# xmcd
#
# Track frame offsets:
#	150
#	10284
#	19938
#	32878
#	43730
#	54906
#	65560
#	80967
#	92581
#	103279
#	114251
#	125958
#	137885
#	149568
#	158433
#	169335
#	178667
#	190024
#
# Disc length: 2684 seconds
#
# Revision: 1
# Processed by: cddbd v1.4PL0 Copyright (c) Steve Scherf et al.
# Submitted via: audiograbber 1.80
#
DISCID=050a7a12
DTITLE=Patsy Cline - I'm Blue Again
DYEAR=1900
DGENRE=
TTITLE0=I'm Blue Again
TTITLE1=I'm Moving Along
TTITLE2=Just A Closer Walk With Thee
TTITLE3=Lovesick Blues
TTITLE4=Don't Ever Leave Me
TTITLE5=He Will Do For You What He Has Done For Me
TTITLE6=Then You'll Know
TTITLE7=I Go To Church On Sunday
TTITLE8=I Don't Wana
TTITLE9=I Cried All The Way To The Altar 
TTITLE10=Let The Teardrops Fall
TTITLE11=If I Could Only Stay A Sleep
TTITLE12=Today,Tomorrow And Forever
TTITLE13=Come On In
TTITLE14=Secrets
TTITLE15=Try Again
TTITLE16=Hidin' Out
TTITLE17=Just Out Of Reach
EXTD=
EXTT0=
EXTT1=
EXTT2=
EXTT3=
EXTT4=
EXTT5=
EXTT6=
EXTT7=
EXTT8=
EXTT9=
EXTT10=
EXTT11=
EXTT12=
EXTT13=
EXTT14=
EXTT15=
EXTT16=
EXTT17=
PLAYORDER=
